<svg id="export_-_counter" data-name="export - counter" xmlns="http://www.w3.org/2000/svg" viewBox="0 0 180 155.3"><defs><style>.cls-1{fill:#006022;}.cls-2{fill:#fff;}.cls-3{fill:#00953a;}.cls-4{fill:#5cc65c;}.cls-5{fill:#ffd9c0;}.cls-6{fill:#4d1b0a;}</style></defs><title>adyen_tower_defense_v3</title><rect id="counter_-_shadow" data-name="counter - shadow" class="cls-1" x="65" y="40.3" width="50" height="180" transform="translate(220.3 40.3) rotate(90)"/><polygon id="adyen_logo" data-name="adyen logo" class="cls-2" points="76.97 115 76.97 120 96.97 120 96.97 140 81.97 140 81.97 130 93.97 130 93.97 125 81.74 125 77.21 125 76.97 125 76.97 145 81.74 145 101.97 145 101.97 140.46 101.97 120.01 101.97 115 76.97 115"/><rect id="counter" class="cls-3" x="74.85" y="0.15" width="30.3" height="180" transform="translate(180.15 0.15) rotate(90)"/><path id="shirt_-_arms_down" data-name="shirt - arms down" class="cls-4" d="M125,70v5h-5V70h5ZM55,70v5h5V70H55Zm10-5H60v5h5v5h50V70h5V65H65Z"/><polygon id="arm_-_left" data-name="arm - left" class="cls-5" points="49.97 80.81 49.97 86.28 49.97 92 54.97 92 54.97 86.28 54.97 80.81 54.97 75 49.97 75 49.97 80.81"/><polygon id="arm_-_right" data-name="arm - right" class="cls-5" points="124.97 75 124.97 80.81 124.97 86.28 124.97 92 129.97 92 129.97 86.28 129.97 80.81 129.97 75 124.97 75"/><polygon id="face" class="cls-5" points="69.97 20 69.97 30 64.97 30 64.97 40 69.97 40 69.97 60 69.97 65 99.97 65 99.97 60 114.97 60 114.97 20 69.97 20"/><rect id="eye_-_left" data-name="eye - left" x="78.97" y="30" width="5" height="5"/><rect id="eye_-_right" data-name="eye - right" x="103.97" y="30" width="5" height="5"/><polygon id="mouth_-_smile" data-name="mouth - smile" class="cls-2" points="78.97 40 78.97 45 83.97 45 83.97 50 103.97 50 103.97 45 108.97 45 108.97 40 78.97 40"/><polygon id="hair" class="cls-6" points="109.97 0 109.97 5 103.97 5 83.97 5 83.97 10 69.97 10 69.97 15 64.97 15 64.97 20 64.97 30 69.97 30 69.97 20 114.97 20 114.97 17.33 114.97 15 114.97 10 114.97 5 114.97 0 109.97 0"/></svg>