<svg id="export_-_icons" data-name="export - icons" xmlns="http://www.w3.org/2000/svg" viewBox="0 0 60 40"><defs><style>.cls-1{fill:#ff5552;}.cls-2{fill:#e8d5bc;}</style></defs><title>error</title><polygon id="icon_-_background" data-name="icon - background" class="cls-1" points="55 5 55 0 5 0 5 5 0 5 0 35 5 35 5 40 55 40 55 35 60 35 60 5 55 5"/><path class="cls-2" d="M22.5,32.5h-5v-5h5v5Zm5-10h-5v5h5v-5Zm5-5.14h-5v5h5v-5Zm5-4.86h-5v5h5v-5Zm5-5h-5v5h5v-5Zm-5,15h-5v5h5v-5Zm5,5h-5v5h5v-5Zm-15-15h-5v5h5v-5Zm-5-5h-5v5h5v-5Z"/></svg>